<svg id="Layer_1" data-name="Layer 1" xmlns="http://www.w3.org/2000/svg" viewBox="0 0 1178 743"><defs><style>.cls-1{fill:#fff;}.cls-2{fill:#2d628c;}</style></defs><title>SVG</title><rect class="cls-1" width="1178" height="743"/><path d="M128.18,575.36v24.26H27V468.94h98.76V493.2H57.06v28.38h60.67v23.53H57.06v30.25Z" transform="translate(6 6)"/><path d="M156,468.94h30.24V575h65.53v24.65H156Z" transform="translate(6 6)"/><path d="M373.61,575.36v24.26H272.42V468.94h98.76V493.2h-68.7v28.38h60.67v23.53H302.48v30.25Z" transform="translate(6 6)"/><path d="M525.17,468.94,468.6,599.62H438.73L382.35,468.94H415l39.77,93.35,40.32-93.35Z" transform="translate(6 6)"/><path d="M621.46,571.61H560.79l-11.57,28h-31l58.24-130.68h29.87l58.43,130.68H633Zm-9.52-23-20.72-50-20.72,50Z" transform="translate(6 6)"/><path d="M702.62,493.58H660.81V468.94H774.69v24.64H732.87v106H702.62Z" transform="translate(6 6)"/><path d="M794.63,468.94h30.25V599.62H794.63Z" transform="translate(6 6)"/><path d="M851.37,534.28c0-38.84,30.24-67.58,71.51-67.58,41.06,0,71.49,28.57,71.49,67.58s-30.43,67.58-71.49,67.58C881.61,601.86,851.37,573.12,851.37,534.28Zm112.38,0c0-24.82-17.53-41.82-40.87-41.82S882,509.46,882,534.28s17.55,41.81,40.89,41.81S963.75,559.1,963.75,534.28Z" transform="translate(6 6)"/><path d="M1140.69,468.94V599.62h-24.83l-65.14-79.34v79.34h-29.89V468.94h25l65,79.34V468.94Z" transform="translate(6 6)"/><path class="cls-2" d="M257.25,632.57h59.5v10.75H271.64v17.26h43.3v10.77h-43.3v19h45.88v10.73H257.25Z" transform="translate(6 6)"/><path class="cls-2" d="M353.33,632.57h16.51L410.64,684h.17V632.57h13.83v68.51H408.41l-41.07-51.43h-.19v51.43H353.33Z" transform="translate(6 6)"/><path class="cls-2" d="M482.34,643.32H456.61V632.57h65.84v10.75H496.73v57.76H482.34Z" transform="translate(6 6)"/><path class="cls-2" d="M554.43,632.57h14.4v68.51h-14.4Z" transform="translate(6 6)"/><path class="cls-2" d="M626.52,643.32H600.79V632.57h65.83v10.75H640.91v57.76H626.52Z" transform="translate(6 6)"/><path class="cls-2" d="M698.61,632.57H713v68.51h-14.4Z" transform="translate(6 6)"/><path class="cls-2" d="M752,632.57h59.49v10.75H766.38v17.26h43.28v10.77H766.38v19h45.86v10.73H752Z" transform="translate(6 6)"/><path class="cls-2" d="M874.65,630.65c10.55,0,31.67,1.92,33.49,21.77H892.6c-.49-5.28-5.28-11-17.27-11-9.62,0-15.93,3-15.93,9.39,0,16.12,51,.68,51,29.94,0,17.66-18.33,22.26-32.92,22.26-24.64,0-34.54-9.69-34.73-24.07h15.55c.36,9,7.86,13.33,19.66,13.33,8.74,0,16.9-2.58,16.9-10.07,0-17-50.49-2.21-50.49-30.33C844.41,636.6,858,630.65,874.65,630.65Z" transform="translate(6 6)"/><polygon class="cls-2" points="414.08 434.36 414.08 301.9 266.52 434.36 414.08 434.36"/><polygon points="483.24 131.36 430.67 179.5 430.67 434.36 466.62 434.36 483.24 434.36 519.17 434.36 519.17 226.81 483.24 259.66 483.24 131.36"/><polygon class="cls-2" points="655.26 36.62 512.37 167.71 535.76 179.5 535.76 434.36 556.81 434.36 556.81 256.37 615.36 290.64 615.36 434.36 638.68 434.36 655.26 434.36 680.04 434.36 680.04 244.68 655.26 222.01 655.26 36.62"/><polygon points="913.17 434.36 770.53 307.73 770.53 187.17 696.69 235.14 696.69 434.36 713.43 434.36 713.43 367.21 766 340.78 766 434.36 913.17 434.36"/><path d="M703,168.86H717c-.23-13-6.46-26.84-17-37.41-10.73-10.75-24.84-17-38-17.09v14.07c9.47,0,19.84,4.82,28,13C698,149.39,702.74,159.54,703,168.86Z" transform="translate(6 6)"/><path d="M744.87,168.86h14.22c-2.42-22.5-14-45.85-32.35-64.16-18.48-18.49-42-30.18-64.72-32.46v14.2c19,2.29,38.92,12.36,54.76,28.2C732.46,130.33,742.48,150,744.87,168.86Z" transform="translate(6 6)"/><path d="M786,168.86h14.22C796,137,779.35,104.11,753.32,78.09c-26.18-26.18-59.22-42.89-91.3-47V45.28c28.45,4.1,57.81,19.23,81.36,42.75C766.74,111.4,781.83,140.57,786,168.86Z" transform="translate(6 6)"/></svg>